<svg width="44" height="44" viewBox="0 0 44 44" fill="none" xmlns="http://www.w3.org/2000/svg">
<path fill-rule="evenodd" clip-rule="evenodd" d="M17.1901 36.7178L33.2984 15.8866C34.1739 14.7633 34.4852 13.4645 34.1933 12.1421C33.9404 10.94 33.2012 9.79692 32.0923 8.92977L29.3881 6.78162C27.0341 4.90937 24.1159 5.10645 22.4428 7.2546L20.6335 9.60181C20.4001 9.89546 20.4584 10.329 20.7502 10.5655C20.7502 10.5655 25.3221 14.2312 25.4193 14.31C25.7306 14.6056 25.9641 14.9998 26.0224 15.4728C26.1197 16.399 25.4777 17.2662 24.5244 17.3844C24.077 17.4436 23.649 17.3056 23.3377 17.0494L18.5324 13.2261C18.299 13.0507 17.9488 13.0881 17.7542 13.3246L6.33442 28.1055C5.59515 29.0318 5.34224 30.2339 5.59515 31.3967L7.05424 37.7229C7.13206 38.058 7.42388 38.2944 7.77406 38.2944L14.1941 38.2156C15.3613 38.1959 16.4508 37.6638 17.1901 36.7178ZM26.1794 34.7476H36.6479C37.6693 34.7476 38.5 35.5891 38.5 36.6238C38.5 37.6604 37.6693 38.5 36.6479 38.5H26.1794C25.1581 38.5 24.3274 37.6604 24.3274 36.6238C24.3274 35.5891 25.1581 34.7476 26.1794 34.7476Z" fill="url(#paint0_linear_1_9)"/>
<defs>
<linearGradient id="paint0_linear_1_9" x1="22" y1="5.5" x2="22" y2="38.5" gradientUnits="userSpaceOnUse">
<stop stop-color="#3A71FF"/>
<stop offset="1" stop-color="#AA36E9" stop-opacity="0.35"/>
</linearGradient>
</defs>
</svg>
