<svg width="49" height="49" viewBox="0 0 49 49" fill="none" xmlns="http://www.w3.org/2000/svg">
<g filter="url(#filter0_b_1_42)">
<g filter="url(#filter1_bii_1_42)">
<path d="M27.5293 23.4295C30.9953 22.9943 34.413 24.3892 36.6049 27.0892C36.7658 27.2875 37.0529 27.3308 37.2591 27.1803C38.252 26.4547 39.1068 25.5483 39.7771 24.502C43.9544 17.9845 39.3156 9.1875 31.3906 9.1875C26.2192 9.1875 21.9568 13.1507 21.4824 18.1996C21.4633 18.4035 21.5759 18.5983 21.7633 18.6811C23.9267 19.6379 25.7749 21.2144 27.0732 23.2187C27.1716 23.3708 27.3497 23.452 27.5293 23.4295Z" fill="white"/>
<path d="M31.3906 7.65625C32.2364 7.65625 32.9219 6.97063 32.9219 6.125V3.0625C32.9219 2.21687 32.2364 1.53125 31.3906 1.53125C30.5449 1.53125 29.8594 2.21687 29.8594 3.0625V6.125C29.8594 6.97063 30.5449 7.65625 31.3906 7.65625Z" fill="white"/>
<path d="M47.4688 17.6094H44.4062C43.5605 17.6094 42.875 18.295 42.875 19.1406C42.875 19.9863 43.5605 20.6719 44.4062 20.6719H47.4688C48.3145 20.6719 49 19.9863 49 19.1406C49 18.295 48.3145 17.6094 47.4688 17.6094Z" fill="white"/>
<path d="M41.6768 27.2613C41.0789 26.6634 40.1094 26.6634 39.5113 27.2613C38.9133 27.8594 38.9133 28.8288 39.5113 29.4268L41.6768 31.5923C41.9758 31.8913 42.3676 32.0408 42.7595 32.0408C44.1116 32.0408 44.8095 30.3941 43.8422 29.4269L41.6768 27.2613Z" fill="white"/>
<path d="M21.1045 11.0199C21.7024 11.618 22.6719 11.618 23.2699 11.0199C23.868 10.4219 23.868 9.4524 23.2699 8.85445L21.1045 6.68897C20.5067 6.09102 19.5371 6.09102 18.939 6.68897C18.3409 7.28702 18.3409 8.25649 18.939 8.85445L21.1045 11.0199Z" fill="white"/>
<path d="M40.5941 11.4684C40.986 11.4684 41.3778 11.3189 41.6768 11.0198L43.8423 8.85435C44.4403 8.2563 44.4403 7.28682 43.8423 6.68887C43.2443 6.09092 42.2748 6.09082 41.6768 6.68887L39.5114 8.85444C38.5439 9.8219 39.2422 11.4684 40.5941 11.4684Z" fill="white"/>
<path d="M35.6523 34.836C36.8328 29.0197 30.7417 24.5354 25.5762 27.186C24.4409 23.4393 20.9611 20.7118 16.8438 20.7118C11.5003 20.7118 7.28167 25.2882 7.75674 30.6511C3.41641 30.9902 0 34.6195 0 39.0469C0 43.6852 3.75778 47.4688 8.42188 47.4688H35.793C39.2814 47.4688 42.1094 44.6408 42.1094 41.1524C42.1094 37.8183 39.4859 34.836 35.6523 34.836Z" fill="white"/>
</g>
</g>
<defs>
<filter id="filter0_b_1_42" x="-32" y="-32" width="113" height="113" filterUnits="userSpaceOnUse" color-interpolation-filters="sRGB">
<feFlood flood-opacity="0" result="BackgroundImageFix"/>
<feGaussianBlur in="BackgroundImage" stdDeviation="16"/>
<feComposite in2="SourceAlpha" operator="in" result="effect1_backgroundBlur_1_42"/>
<feBlend mode="normal" in="SourceGraphic" in2="effect1_backgroundBlur_1_42" result="shape"/>
</filter>
<filter id="filter1_bii_1_42" x="-30" y="-28.4688" width="109" height="105.938" filterUnits="userSpaceOnUse" color-interpolation-filters="sRGB">
<feFlood flood-opacity="0" result="BackgroundImageFix"/>
<feGaussianBlur in="BackgroundImage" stdDeviation="15"/>
<feComposite in2="SourceAlpha" operator="in" result="effect1_backgroundBlur_1_42"/>
<feBlend mode="normal" in="SourceGraphic" in2="effect1_backgroundBlur_1_42" result="shape"/>
<feColorMatrix in="SourceAlpha" type="matrix" values="0 0 0 0 0 0 0 0 0 0 0 0 0 0 0 0 0 0 127 0" result="hardAlpha"/>
<feOffset/>
<feGaussianBlur stdDeviation="8.5"/>
<feComposite in2="hardAlpha" operator="arithmetic" k2="-1" k3="1"/>
<feColorMatrix type="matrix" values="0 0 0 0 1 0 0 0 0 1 0 0 0 0 1 0 0 0 0.6 0"/>
<feBlend mode="normal" in2="shape" result="effect2_innerShadow_1_42"/>
<feColorMatrix in="SourceAlpha" type="matrix" values="0 0 0 0 0 0 0 0 0 0 0 0 0 0 0 0 0 0 127 0" result="hardAlpha"/>
<feOffset dy="4"/>
<feGaussianBlur stdDeviation="2"/>
<feComposite in2="hardAlpha" operator="arithmetic" k2="-1" k3="1"/>
<feColorMatrix type="matrix" values="0 0 0 0 0 0 0 0 0 0 0 0 0 0 0 0 0 0 0.06 0"/>
<feBlend mode="normal" in2="effect2_innerShadow_1_42" result="effect3_innerShadow_1_42"/>
</filter>
</defs>
</svg>
