<svg width="46" height="46" viewBox="0 0 46 46" fill="none" xmlns="http://www.w3.org/2000/svg">
<g clip-path="url(#clip0_1_56)">
<g filter="url(#filter0_bii_1_56)">
<path d="M45.2468 16.1093C44.6802 15.8022 43.978 15.9109 43.53 16.3742C42.0027 17.9554 39.9501 18.8263 37.7502 18.8263C33.3164 18.8263 29.7087 15.2186 29.7087 10.7848C29.7087 8.09201 31.0474 5.59047 33.2904 4.09278C33.8264 3.73452 34.059 3.06379 33.8588 2.45142C33.6585 1.83906 33.0749 1.43501 32.4311 1.46194C24.3908 1.8097 18.5042 9.18627 19.9387 17.1085C19.9659 17.2587 20.0707 17.3824 20.2115 17.4413C22.2796 18.3066 24.1134 19.8002 25.4007 21.7882C25.4927 21.9303 25.6594 22.0066 25.8273 21.9855C30.0077 21.4588 33.9009 23.7695 35.5844 27.4084C35.6744 27.6028 35.8879 27.7079 36.0964 27.6585C40.8606 26.5302 44.8153 22.751 45.9643 17.6913C46.1069 17.0629 45.8142 16.4155 45.2468 16.1093Z" fill="white"/>
<path d="M33.4493 32.6872C34.5569 27.2302 28.8421 23.0231 23.9958 25.5099C22.9306 21.9948 19.6659 19.4357 15.803 19.4357C10.7897 19.4357 6.83173 23.7294 7.27744 28.7609C3.20531 29.0791 0 32.4841 0 36.6379C0 40.9896 3.52559 44.5394 7.90148 44.5394H33.5813C36.8542 44.5394 39.5074 41.8862 39.5074 38.6133C39.5074 35.4852 37.046 32.6872 33.4493 32.6872Z" fill="white"/>
<path d="M37.3525 10.7785H38.0708V11.4968C38.0708 12.2902 38.714 12.9335 39.5074 12.9335C40.3008 12.9335 40.944 12.2902 40.944 11.4968V10.7785H41.6624C42.4557 10.7785 43.099 10.1353 43.099 9.34188C43.099 8.54849 42.4557 7.90524 41.6624 7.90524H40.944V7.18692C40.944 6.39354 40.3008 5.75029 39.5074 5.75029C38.714 5.75029 38.0708 6.39354 38.0708 7.18692V7.90524H37.3525C36.5591 7.90524 35.9158 8.54849 35.9158 9.34188C35.9158 10.1353 36.5591 10.7785 37.3525 10.7785Z" fill="white"/>
<path d="M2.15496 18.68H2.87327V19.3983C2.87327 20.1917 3.51652 20.8349 4.30991 20.8349C5.10329 20.8349 5.74654 20.1917 5.74654 19.3983V18.68H6.46485C7.25824 18.68 7.90149 18.0367 7.90149 17.2434C7.90149 16.45 7.25824 15.8067 6.46485 15.8067H5.74654V15.0884C5.74654 14.295 5.10329 13.6518 4.30991 13.6518C3.51652 13.6518 2.87327 14.295 2.87327 15.0884V15.8067H2.15496C1.36158 15.8067 0.718323 16.45 0.718323 17.2434C0.718323 18.0367 1.36158 18.68 2.15496 18.68Z" fill="white"/>
<path d="M12.2114 8.62356H12.9297V9.34188C12.9297 10.1353 13.573 10.7785 14.3663 10.7785C15.1597 10.7785 15.803 10.1353 15.803 9.34188V8.62356H16.5213C17.3147 8.62356 17.9579 7.98031 17.9579 7.18693C17.9579 6.39355 17.3147 5.7503 16.5213 5.7503H15.803V5.03198C15.803 4.2386 15.1597 3.59535 14.3663 3.59535C13.573 3.59535 12.9297 4.2386 12.9297 5.03198V5.7503H12.2114C11.418 5.7503 10.7747 6.39355 10.7747 7.18693C10.7747 7.98031 11.418 8.62356 12.2114 8.62356Z" fill="white"/>
</g>
</g>
<defs>
<filter id="filter0_bii_1_56" x="-30" y="-28.5393" width="106" height="103.079" filterUnits="userSpaceOnUse" color-interpolation-filters="sRGB">
<feFlood flood-opacity="0" result="BackgroundImageFix"/>
<feGaussianBlur in="BackgroundImage" stdDeviation="15"/>
<feComposite in2="SourceAlpha" operator="in" result="effect1_backgroundBlur_1_56"/>
<feBlend mode="normal" in="SourceGraphic" in2="effect1_backgroundBlur_1_56" result="shape"/>
<feColorMatrix in="SourceAlpha" type="matrix" values="0 0 0 0 0 0 0 0 0 0 0 0 0 0 0 0 0 0 127 0" result="hardAlpha"/>
<feOffset/>
<feGaussianBlur stdDeviation="8.5"/>
<feComposite in2="hardAlpha" operator="arithmetic" k2="-1" k3="1"/>
<feColorMatrix type="matrix" values="0 0 0 0 1 0 0 0 0 1 0 0 0 0 1 0 0 0 0.6 0"/>
<feBlend mode="normal" in2="shape" result="effect2_innerShadow_1_56"/>
<feColorMatrix in="SourceAlpha" type="matrix" values="0 0 0 0 0 0 0 0 0 0 0 0 0 0 0 0 0 0 127 0" result="hardAlpha"/>
<feOffset dy="4"/>
<feGaussianBlur stdDeviation="2"/>
<feComposite in2="hardAlpha" operator="arithmetic" k2="-1" k3="1"/>
<feColorMatrix type="matrix" values="0 0 0 0 0 0 0 0 0 0 0 0 0 0 0 0 0 0 0.06 0"/>
<feBlend mode="normal" in2="effect2_innerShadow_1_56" result="effect3_innerShadow_1_56"/>
</filter>
<clipPath id="clip0_1_56">
<rect width="46" height="46" fill="white"/>
</clipPath>
</defs>
</svg>
