<svg width="38" height="38" viewBox="0 0 38 38" fill="none" xmlns="http://www.w3.org/2000/svg">
<g clip-path="url(#clip0_1_51)">
<g filter="url(#filter0_bii_1_51)">
<path d="M36.9342 21.9241C36.4652 21.6703 35.8855 21.7601 35.5152 22.1431C33.0318 24.7111 29.6971 26.1257 26.125 26.1257C18.9221 26.1257 13.0625 20.2661 13.0625 13.0632C13.0625 8.68945 15.2371 4.62523 18.8798 2.19308C19.3221 1.89695 19.5143 1.34254 19.3488 0.836366C19.1833 0.330194 18.7009 -0.0037907 18.1688 0.0184749C8.14966 0.451022 0 8.69724 0 19.0007C0 29.5016 8.49782 38.0007 19 38.0007C27.9385 38.0007 35.584 31.7775 37.5265 23.2319C37.6445 22.7123 37.4025 22.178 36.9342 21.9241Z" fill="white"/>
<path d="M36.8125 5.9375C34.1933 5.9375 32.0625 3.80668 32.0625 1.1875C32.0625 0.531406 31.5311 0 30.875 0C30.2189 0 29.6875 0.531406 29.6875 1.1875C29.6875 3.80668 27.5567 5.9375 24.9375 5.9375C24.2814 5.9375 23.75 6.46891 23.75 7.125C23.75 7.78109 24.2814 8.3125 24.9375 8.3125C27.5567 8.3125 29.6875 10.4433 29.6875 13.0625C29.6875 13.7186 30.2189 14.25 30.875 14.25C31.5311 14.25 32.0625 13.7186 32.0625 13.0625C32.0625 10.4433 34.1933 8.3125 36.8125 8.3125C37.4686 8.3125 38 7.78109 38 7.125C38 6.46891 37.4686 5.9375 36.8125 5.9375Z" fill="white"/>
<path d="M17.2188 17.8867C17.2188 18.5428 17.7502 19.0742 18.4062 19.0742C20.0435 19.0742 21.375 20.4057 21.375 22.043C21.375 22.6991 21.9064 23.2305 22.5625 23.2305C23.2186 23.2305 23.75 22.6991 23.75 22.043C23.75 20.4057 25.0815 19.0742 26.7188 19.0742C27.3748 19.0742 27.9062 18.5428 27.9062 17.8867C27.9062 17.2306 27.3748 16.6992 26.7188 16.6992C25.0815 16.6992 23.75 15.3677 23.75 13.7305C23.75 13.0744 23.2186 12.543 22.5625 12.543C21.9064 12.543 21.375 13.0744 21.375 13.7305C21.375 15.3677 20.0435 16.6992 18.4062 16.6992C17.7502 16.6992 17.2188 17.2306 17.2188 17.8867Z" fill="white"/>
</g>
</g>
<defs>
<filter id="filter0_bii_1_51" x="-30" y="-30" width="98" height="98.0007" filterUnits="userSpaceOnUse" color-interpolation-filters="sRGB">
<feFlood flood-opacity="0" result="BackgroundImageFix"/>
<feGaussianBlur in="BackgroundImage" stdDeviation="15"/>
<feComposite in2="SourceAlpha" operator="in" result="effect1_backgroundBlur_1_51"/>
<feBlend mode="normal" in="SourceGraphic" in2="effect1_backgroundBlur_1_51" result="shape"/>
<feColorMatrix in="SourceAlpha" type="matrix" values="0 0 0 0 0 0 0 0 0 0 0 0 0 0 0 0 0 0 127 0" result="hardAlpha"/>
<feOffset/>
<feGaussianBlur stdDeviation="8.5"/>
<feComposite in2="hardAlpha" operator="arithmetic" k2="-1" k3="1"/>
<feColorMatrix type="matrix" values="0 0 0 0 1 0 0 0 0 1 0 0 0 0 1 0 0 0 0.6 0"/>
<feBlend mode="normal" in2="shape" result="effect2_innerShadow_1_51"/>
<feColorMatrix in="SourceAlpha" type="matrix" values="0 0 0 0 0 0 0 0 0 0 0 0 0 0 0 0 0 0 127 0" result="hardAlpha"/>
<feOffset dy="4"/>
<feGaussianBlur stdDeviation="2"/>
<feComposite in2="hardAlpha" operator="arithmetic" k2="-1" k3="1"/>
<feColorMatrix type="matrix" values="0 0 0 0 0 0 0 0 0 0 0 0 0 0 0 0 0 0 0.06 0"/>
<feBlend mode="normal" in2="effect2_innerShadow_1_51" result="effect3_innerShadow_1_51"/>
</filter>
<clipPath id="clip0_1_51">
<rect width="38" height="38" fill="white"/>
</clipPath>
</defs>
</svg>
