<svg width="43" height="43" viewBox="0 0 43 43" fill="none" xmlns="http://www.w3.org/2000/svg">
<g clip-path="url(#clip0_1_73)">
<g filter="url(#filter0_bii_1_73)">
<path d="M36.4391 28.5786L33.7006 26.9975L36.9918 26.1156C37.7086 25.9235 38.134 25.1868 37.9419 24.4699C37.7497 23.7531 37.0139 23.3276 36.296 23.5197L30.4092 25.0971L27.2692 23.2843C27.6282 22.1242 27.6314 20.8614 27.2577 19.6801L30.4086 17.861C36.7693 19.5653 36.3926 19.4846 36.6447 19.4846C37.238 19.4846 37.781 19.0886 37.9419 18.4883C38.1339 17.7714 37.7086 17.0346 36.9918 16.8426L33.7002 15.9606L36.4391 14.3795C36.8595 14.6214 37.3286 14.7405 37.7878 14.7405C39.8329 14.7405 41.1482 12.5049 40.1109 10.7081C39.3684 9.42179 37.7265 8.98172 36.4396 9.72447C35.5802 10.2207 35.0993 11.1233 35.0973 12.0509L32.3572 13.6329L33.2389 10.3423C33.431 9.62546 33.0056 8.88866 32.2887 8.69659C31.5721 8.50443 30.8351 8.9299 30.643 9.6467L29.0657 15.5332L25.8957 17.3633C25.0859 16.5015 24.0272 15.8773 22.8352 15.6056V11.8947L27.1448 7.58514C27.6696 7.06041 27.6696 6.20956 27.1448 5.68483C26.62 5.16001 25.7692 5.16001 25.2444 5.68483L22.8351 8.09408V5.01354C23.6376 4.5481 24.1789 3.6802 24.1789 2.68759C24.1789 1.20569 22.9733 9.15527e-05 21.4914 9.15527e-05C20.0095 9.15527e-05 18.8039 1.20569 18.8039 2.68759C18.8039 3.68012 19.3451 4.5481 20.1476 5.01354V8.09392L17.7383 5.68474C17.2136 5.15992 16.3628 5.15992 15.838 5.68474C15.3132 6.20948 15.3132 7.06032 15.838 7.58506L20.1475 11.8945V15.6056C18.9428 15.8802 17.874 16.5147 17.0608 17.3906L13.8447 15.5338L12.2673 9.6467C12.0752 8.9299 11.3386 8.50443 10.6214 8.69659C9.90462 8.88866 9.47915 9.62554 9.67131 10.3423L10.5531 13.6334L7.88538 12.0929C7.88177 10.3363 6.22384 9.03689 4.50358 9.49797C2.19645 10.1162 1.79593 13.2322 3.85539 14.4214C4.72228 14.9218 5.74067 14.8835 6.54356 14.4215L9.20948 15.9608L5.91838 16.8427C5.20149 17.0347 4.77603 17.7715 4.96818 18.4884C5.15942 19.2018 5.89361 19.6316 6.61394 19.4385L12.5008 17.8611L15.7133 19.7159C15.3651 20.8412 15.3479 22.0748 15.7031 23.2484L12.5009 25.0971L6.61386 23.5197C5.89747 23.3274 5.16026 23.7531 4.9681 24.4699C4.77603 25.1868 5.20141 25.9235 5.9183 26.1156L9.2094 26.9975L6.5434 28.5366C5.73614 28.0722 4.71816 28.0389 3.85522 28.5369C1.79467 29.7267 2.19729 32.8423 4.5035 33.4602C6.21544 33.9189 7.88169 32.6274 7.8853 30.8652L10.5531 29.3249L9.67123 32.6159C9.47915 33.3327 9.90453 34.0696 10.6213 34.2617C11.3413 34.4547 12.0759 34.0252 12.2672 33.3116L13.8447 27.4246L17.0351 25.5826C17.8514 26.4727 18.9303 27.1171 20.1475 27.3945V31.0217L15.838 35.3312C15.3132 35.856 15.3132 36.7068 15.838 37.2315C16.3628 37.7564 17.2136 37.7564 17.7383 37.2315L20.1475 34.8224V37.9866C19.345 38.4521 18.8038 39.32 18.8038 40.3126C18.8038 41.7945 20.0094 43.0001 21.4913 43.0001C22.9732 43.0001 24.1788 41.7945 24.1788 40.3126C24.1788 39.3201 23.6375 38.4521 22.835 37.9866V34.8223L25.2444 37.2315C25.5067 37.494 25.8506 37.6252 26.1945 37.6252C27.3808 37.6252 27.9938 36.1802 27.1446 35.3313L22.835 31.0217V27.3946C24.0397 27.1201 25.1086 26.4856 25.9217 25.6096L29.0654 27.4247L30.6428 33.3116C30.8037 33.912 31.3466 34.308 31.9399 34.308C32.8235 34.308 33.4674 33.4692 33.2388 32.6161L32.3569 29.3252L35.0972 30.9073C35.1003 32.4181 36.3286 33.5951 37.7789 33.5951C38.6982 33.5951 39.6065 33.1238 40.1109 32.2502C41.4698 29.8963 38.8312 27.2024 36.4391 28.5786ZM21.4913 23.5156C20.3785 23.5156 19.4756 22.6128 19.4756 21.5C19.4756 20.3872 20.3785 19.4844 21.4913 19.4844C22.6041 19.4844 23.5069 20.3872 23.5069 21.5C23.5069 22.6128 22.6041 23.5156 21.4913 23.5156Z" fill="white"/>
</g>
</g>
<defs>
<filter id="filter0_bii_1_73" x="-27.4818" y="-29.9999" width="97.9634" height="103" filterUnits="userSpaceOnUse" color-interpolation-filters="sRGB">
<feFlood flood-opacity="0" result="BackgroundImageFix"/>
<feGaussianBlur in="BackgroundImage" stdDeviation="15"/>
<feComposite in2="SourceAlpha" operator="in" result="effect1_backgroundBlur_1_73"/>
<feBlend mode="normal" in="SourceGraphic" in2="effect1_backgroundBlur_1_73" result="shape"/>
<feColorMatrix in="SourceAlpha" type="matrix" values="0 0 0 0 0 0 0 0 0 0 0 0 0 0 0 0 0 0 127 0" result="hardAlpha"/>
<feOffset/>
<feGaussianBlur stdDeviation="8.5"/>
<feComposite in2="hardAlpha" operator="arithmetic" k2="-1" k3="1"/>
<feColorMatrix type="matrix" values="0 0 0 0 1 0 0 0 0 1 0 0 0 0 1 0 0 0 0.6 0"/>
<feBlend mode="normal" in2="shape" result="effect2_innerShadow_1_73"/>
<feColorMatrix in="SourceAlpha" type="matrix" values="0 0 0 0 0 0 0 0 0 0 0 0 0 0 0 0 0 0 127 0" result="hardAlpha"/>
<feOffset dy="4"/>
<feGaussianBlur stdDeviation="2"/>
<feComposite in2="hardAlpha" operator="arithmetic" k2="-1" k3="1"/>
<feColorMatrix type="matrix" values="0 0 0 0 0 0 0 0 0 0 0 0 0 0 0 0 0 0 0.06 0"/>
<feBlend mode="normal" in2="effect2_innerShadow_1_73" result="effect3_innerShadow_1_73"/>
</filter>
<clipPath id="clip0_1_73">
<rect width="43" height="43" fill="white"/>
</clipPath>
</defs>
</svg>
